<mxfile host="app.diagrams.net" modified="2023-10-17T07:43:34.861Z" agent="Mozilla/5.0 (Windows NT 10.0; Win64; x64) AppleWebKit/537.36 (KHTML, like Gecko) Chrome/118.0.0.0 Safari/537.36" etag="iPvr-KY1xOj_voco_0aC" version="22.0.4" type="device">
  <diagram id="C5RBs43oDa-KdzZeNtuy" name="Page-1">
    <mxGraphModel dx="1222" dy="702" grid="1" gridSize="10" guides="1" tooltips="1" connect="1" arrows="1" fold="1" page="1" pageScale="1" pageWidth="827" pageHeight="1169" math="0" shadow="0">
      <root>
        <mxCell id="WIyWlLk6GJQsqaUBKTNV-0" />
        <mxCell id="WIyWlLk6GJQsqaUBKTNV-1" parent="WIyWlLk6GJQsqaUBKTNV-0" />
        <mxCell id="WIyWlLk6GJQsqaUBKTNV-3" value="Start" style="rounded=1;whiteSpace=wrap;html=1;fontSize=12;glass=0;strokeWidth=1;shadow=0;" parent="WIyWlLk6GJQsqaUBKTNV-1" vertex="1">
          <mxGeometry x="338" y="80" width="120" height="40" as="geometry" />
        </mxCell>
        <mxCell id="WLUQYtFgetqqueXRpcRQ-1" value="" style="endArrow=classic;html=1;rounded=0;exitX=0.5;exitY=1;exitDx=0;exitDy=0;entryX=0.5;entryY=0;entryDx=0;entryDy=0;" edge="1" parent="WIyWlLk6GJQsqaUBKTNV-1">
          <mxGeometry width="50" height="50" relative="1" as="geometry">
            <mxPoint x="398" y="120.00000000000011" as="sourcePoint" />
            <mxPoint x="398.0000000000001" y="180" as="targetPoint" />
          </mxGeometry>
        </mxCell>
        <mxCell id="WLUQYtFgetqqueXRpcRQ-9" value="pilih jenis&amp;nbsp;&lt;br&gt;kelamin" style="rounded=0;whiteSpace=wrap;html=1;" vertex="1" parent="WIyWlLk6GJQsqaUBKTNV-1">
          <mxGeometry x="338" y="160" width="120" height="60" as="geometry" />
        </mxCell>
        <mxCell id="WLUQYtFgetqqueXRpcRQ-17" value="" style="edgeStyle=segmentEdgeStyle;endArrow=classic;html=1;curved=0;rounded=0;endSize=8;startSize=8;" edge="1" parent="WIyWlLk6GJQsqaUBKTNV-1">
          <mxGeometry width="50" height="50" relative="1" as="geometry">
            <mxPoint x="458" y="190" as="sourcePoint" />
            <mxPoint x="578" y="230" as="targetPoint" />
            <Array as="points">
              <mxPoint x="578" y="190" />
            </Array>
          </mxGeometry>
        </mxCell>
        <mxCell id="WLUQYtFgetqqueXRpcRQ-28" value="Wanita" style="edgeLabel;html=1;align=center;verticalAlign=middle;resizable=0;points=[];" vertex="1" connectable="0" parent="WLUQYtFgetqqueXRpcRQ-17">
          <mxGeometry x="0.4771" y="2" relative="1" as="geometry">
            <mxPoint as="offset" />
          </mxGeometry>
        </mxCell>
        <mxCell id="WLUQYtFgetqqueXRpcRQ-34" style="edgeStyle=orthogonalEdgeStyle;rounded=0;orthogonalLoop=1;jettySize=auto;html=1;" edge="1" parent="WIyWlLk6GJQsqaUBKTNV-1" source="WLUQYtFgetqqueXRpcRQ-20">
          <mxGeometry relative="1" as="geometry">
            <mxPoint x="568" y="310" as="targetPoint" />
          </mxGeometry>
        </mxCell>
        <mxCell id="WLUQYtFgetqqueXRpcRQ-20" value="Masukan tinggi &lt;br&gt;badan" style="shape=parallelogram;perimeter=parallelogramPerimeter;whiteSpace=wrap;html=1;fixedSize=1;" vertex="1" parent="WIyWlLk6GJQsqaUBKTNV-1">
          <mxGeometry x="508" y="230" width="120" height="50" as="geometry" />
        </mxCell>
        <mxCell id="WLUQYtFgetqqueXRpcRQ-25" style="edgeStyle=orthogonalEdgeStyle;rounded=0;orthogonalLoop=1;jettySize=auto;html=1;" edge="1" parent="WIyWlLk6GJQsqaUBKTNV-1">
          <mxGeometry relative="1" as="geometry">
            <mxPoint x="243" y="240" as="targetPoint" />
            <mxPoint x="243" y="240" as="sourcePoint" />
          </mxGeometry>
        </mxCell>
        <mxCell id="WLUQYtFgetqqueXRpcRQ-32" style="edgeStyle=orthogonalEdgeStyle;rounded=0;orthogonalLoop=1;jettySize=auto;html=1;" edge="1" parent="WIyWlLk6GJQsqaUBKTNV-1" source="WLUQYtFgetqqueXRpcRQ-21">
          <mxGeometry relative="1" as="geometry">
            <mxPoint x="249" y="310" as="targetPoint" />
          </mxGeometry>
        </mxCell>
        <mxCell id="WLUQYtFgetqqueXRpcRQ-21" value="Masukan tinggi &lt;br&gt;badan" style="shape=parallelogram;perimeter=parallelogramPerimeter;whiteSpace=wrap;html=1;fixedSize=1;" vertex="1" parent="WIyWlLk6GJQsqaUBKTNV-1">
          <mxGeometry x="189" y="230" width="120" height="50" as="geometry" />
        </mxCell>
        <mxCell id="WLUQYtFgetqqueXRpcRQ-30" value="" style="edgeStyle=segmentEdgeStyle;endArrow=classic;html=1;curved=0;rounded=0;endSize=8;startSize=8;entryX=0.5;entryY=0;entryDx=0;entryDy=0;exitX=0;exitY=0.5;exitDx=0;exitDy=0;" edge="1" parent="WIyWlLk6GJQsqaUBKTNV-1" source="WLUQYtFgetqqueXRpcRQ-9" target="WLUQYtFgetqqueXRpcRQ-21">
          <mxGeometry width="50" height="50" relative="1" as="geometry">
            <mxPoint x="288" y="190" as="sourcePoint" />
            <mxPoint x="338" y="140" as="targetPoint" />
          </mxGeometry>
        </mxCell>
        <mxCell id="WLUQYtFgetqqueXRpcRQ-31" value="Pria" style="edgeLabel;html=1;align=center;verticalAlign=middle;resizable=0;points=[];" vertex="1" connectable="0" parent="WLUQYtFgetqqueXRpcRQ-30">
          <mxGeometry x="0.3333" y="1" relative="1" as="geometry">
            <mxPoint as="offset" />
          </mxGeometry>
        </mxCell>
        <mxCell id="WLUQYtFgetqqueXRpcRQ-37" style="edgeStyle=orthogonalEdgeStyle;rounded=0;orthogonalLoop=1;jettySize=auto;html=1;entryX=0.5;entryY=0;entryDx=0;entryDy=0;" edge="1" parent="WIyWlLk6GJQsqaUBKTNV-1" source="WLUQYtFgetqqueXRpcRQ-33" target="WLUQYtFgetqqueXRpcRQ-36">
          <mxGeometry relative="1" as="geometry" />
        </mxCell>
        <mxCell id="WLUQYtFgetqqueXRpcRQ-33" value="Masukan berat&lt;br&gt;badan" style="shape=parallelogram;perimeter=parallelogramPerimeter;whiteSpace=wrap;html=1;fixedSize=1;" vertex="1" parent="WIyWlLk6GJQsqaUBKTNV-1">
          <mxGeometry x="179" y="310" width="120" height="50" as="geometry" />
        </mxCell>
        <mxCell id="WLUQYtFgetqqueXRpcRQ-35" value="Masukan berat&lt;br&gt;badan" style="shape=parallelogram;perimeter=parallelogramPerimeter;whiteSpace=wrap;html=1;fixedSize=1;" vertex="1" parent="WIyWlLk6GJQsqaUBKTNV-1">
          <mxGeometry x="503" y="310" width="120" height="50" as="geometry" />
        </mxCell>
        <mxCell id="WLUQYtFgetqqueXRpcRQ-42" style="edgeStyle=orthogonalEdgeStyle;rounded=0;orthogonalLoop=1;jettySize=auto;html=1;" edge="1" parent="WIyWlLk6GJQsqaUBKTNV-1" source="WLUQYtFgetqqueXRpcRQ-36">
          <mxGeometry relative="1" as="geometry">
            <mxPoint x="239" y="480" as="targetPoint" />
          </mxGeometry>
        </mxCell>
        <mxCell id="WLUQYtFgetqqueXRpcRQ-36" value="Hitung nilai BMI" style="rounded=0;whiteSpace=wrap;html=1;" vertex="1" parent="WIyWlLk6GJQsqaUBKTNV-1">
          <mxGeometry x="184" y="400" width="110" height="40" as="geometry" />
        </mxCell>
        <mxCell id="WLUQYtFgetqqueXRpcRQ-39" value="Hitung nilai BMI" style="rounded=0;whiteSpace=wrap;html=1;" vertex="1" parent="WIyWlLk6GJQsqaUBKTNV-1">
          <mxGeometry x="499" y="400" width="110" height="40" as="geometry" />
        </mxCell>
        <mxCell id="WLUQYtFgetqqueXRpcRQ-40" style="edgeStyle=orthogonalEdgeStyle;rounded=0;orthogonalLoop=1;jettySize=auto;html=1;entryX=0.59;entryY=0;entryDx=0;entryDy=0;entryPerimeter=0;" edge="1" parent="WIyWlLk6GJQsqaUBKTNV-1" source="WLUQYtFgetqqueXRpcRQ-35" target="WLUQYtFgetqqueXRpcRQ-39">
          <mxGeometry relative="1" as="geometry" />
        </mxCell>
        <mxCell id="WLUQYtFgetqqueXRpcRQ-47" style="edgeStyle=orthogonalEdgeStyle;rounded=0;orthogonalLoop=1;jettySize=auto;html=1;exitX=0;exitY=0;exitDx=0;exitDy=0;" edge="1" parent="WIyWlLk6GJQsqaUBKTNV-1">
          <mxGeometry relative="1" as="geometry">
            <mxPoint x="140" y="590" as="targetPoint" />
            <mxPoint x="222.75" y="510" as="sourcePoint" />
          </mxGeometry>
        </mxCell>
        <mxCell id="WLUQYtFgetqqueXRpcRQ-41" value="" style="rhombus;whiteSpace=wrap;html=1;" vertex="1" parent="WIyWlLk6GJQsqaUBKTNV-1">
          <mxGeometry x="166.5" y="480" width="145" height="60" as="geometry" />
        </mxCell>
        <mxCell id="WLUQYtFgetqqueXRpcRQ-45" style="edgeStyle=orthogonalEdgeStyle;rounded=0;orthogonalLoop=1;jettySize=auto;html=1;" edge="1" parent="WIyWlLk6GJQsqaUBKTNV-1">
          <mxGeometry relative="1" as="geometry">
            <mxPoint x="559" y="480" as="targetPoint" />
            <mxPoint x="559" y="440" as="sourcePoint" />
            <Array as="points">
              <mxPoint x="559" y="450" />
              <mxPoint x="559" y="450" />
            </Array>
          </mxGeometry>
        </mxCell>
        <mxCell id="WLUQYtFgetqqueXRpcRQ-46" value="" style="rhombus;whiteSpace=wrap;html=1;" vertex="1" parent="WIyWlLk6GJQsqaUBKTNV-1">
          <mxGeometry x="490.5" y="480" width="145" height="60" as="geometry" />
        </mxCell>
        <mxCell id="WLUQYtFgetqqueXRpcRQ-50" value="" style="edgeStyle=segmentEdgeStyle;endArrow=classic;html=1;curved=0;rounded=0;endSize=8;startSize=8;" edge="1" parent="WIyWlLk6GJQsqaUBKTNV-1">
          <mxGeometry width="50" height="50" relative="1" as="geometry">
            <mxPoint x="310" y="510" as="sourcePoint" />
            <mxPoint x="338" y="590" as="targetPoint" />
          </mxGeometry>
        </mxCell>
        <mxCell id="WLUQYtFgetqqueXRpcRQ-51" style="edgeStyle=orthogonalEdgeStyle;rounded=0;orthogonalLoop=1;jettySize=auto;html=1;" edge="1" parent="WIyWlLk6GJQsqaUBKTNV-1">
          <mxGeometry relative="1" as="geometry">
            <mxPoint x="460" y="590" as="targetPoint" />
            <mxPoint x="490" y="510" as="sourcePoint" />
          </mxGeometry>
        </mxCell>
        <mxCell id="WLUQYtFgetqqueXRpcRQ-52" value="" style="edgeStyle=segmentEdgeStyle;endArrow=classic;html=1;curved=0;rounded=0;endSize=8;startSize=8;" edge="1" parent="WIyWlLk6GJQsqaUBKTNV-1">
          <mxGeometry width="50" height="50" relative="1" as="geometry">
            <mxPoint x="630" y="510" as="sourcePoint" />
            <mxPoint x="660" y="590" as="targetPoint" />
          </mxGeometry>
        </mxCell>
        <mxCell id="WLUQYtFgetqqueXRpcRQ-53" value="" style="shape=parallelogram;perimeter=parallelogramPerimeter;whiteSpace=wrap;html=1;fixedSize=1;" vertex="1" parent="WIyWlLk6GJQsqaUBKTNV-1">
          <mxGeometry x="59" y="590" width="141" height="40" as="geometry" />
        </mxCell>
        <mxCell id="WLUQYtFgetqqueXRpcRQ-54" value="" style="shape=parallelogram;perimeter=parallelogramPerimeter;whiteSpace=wrap;html=1;fixedSize=1;" vertex="1" parent="WIyWlLk6GJQsqaUBKTNV-1">
          <mxGeometry x="260" y="590" width="141" height="40" as="geometry" />
        </mxCell>
        <mxCell id="WLUQYtFgetqqueXRpcRQ-55" value="" style="shape=parallelogram;perimeter=parallelogramPerimeter;whiteSpace=wrap;html=1;fixedSize=1;" vertex="1" parent="WIyWlLk6GJQsqaUBKTNV-1">
          <mxGeometry x="410" y="590" width="141" height="40" as="geometry" />
        </mxCell>
        <mxCell id="WLUQYtFgetqqueXRpcRQ-57" value="" style="shape=parallelogram;perimeter=parallelogramPerimeter;whiteSpace=wrap;html=1;fixedSize=1;" vertex="1" parent="WIyWlLk6GJQsqaUBKTNV-1">
          <mxGeometry x="580" y="590" width="141" height="40" as="geometry" />
        </mxCell>
        <mxCell id="WLUQYtFgetqqueXRpcRQ-58" value="Else" style="text;html=1;align=center;verticalAlign=middle;resizable=0;points=[];autosize=1;strokeColor=none;fillColor=none;" vertex="1" parent="WIyWlLk6GJQsqaUBKTNV-1">
          <mxGeometry x="155" y="568" width="50" height="30" as="geometry" />
        </mxCell>
        <mxCell id="WLUQYtFgetqqueXRpcRQ-59" value="Ya" style="text;html=1;align=center;verticalAlign=middle;resizable=0;points=[];autosize=1;strokeColor=none;fillColor=none;" vertex="1" parent="WIyWlLk6GJQsqaUBKTNV-1">
          <mxGeometry x="70" y="568" width="40" height="30" as="geometry" />
        </mxCell>
        <mxCell id="WLUQYtFgetqqueXRpcRQ-60" value="Ya" style="text;html=1;align=center;verticalAlign=middle;resizable=0;points=[];autosize=1;strokeColor=none;fillColor=none;" vertex="1" parent="WIyWlLk6GJQsqaUBKTNV-1">
          <mxGeometry x="410" y="568" width="40" height="30" as="geometry" />
        </mxCell>
        <mxCell id="WLUQYtFgetqqueXRpcRQ-61" value="Else" style="text;html=1;align=center;verticalAlign=middle;resizable=0;points=[];autosize=1;strokeColor=none;fillColor=none;" vertex="1" parent="WIyWlLk6GJQsqaUBKTNV-1">
          <mxGeometry x="670" y="570" width="50" height="30" as="geometry" />
        </mxCell>
        <mxCell id="WLUQYtFgetqqueXRpcRQ-62" value="" style="shape=parallelogram;perimeter=parallelogramPerimeter;whiteSpace=wrap;html=1;fixedSize=1;" vertex="1" parent="WIyWlLk6GJQsqaUBKTNV-1">
          <mxGeometry x="327.5" y="710" width="141" height="40" as="geometry" />
        </mxCell>
        <mxCell id="WLUQYtFgetqqueXRpcRQ-63" style="edgeStyle=orthogonalEdgeStyle;rounded=0;orthogonalLoop=1;jettySize=auto;html=1;entryX=0.448;entryY=-0.15;entryDx=0;entryDy=0;entryPerimeter=0;" edge="1" parent="WIyWlLk6GJQsqaUBKTNV-1" source="WLUQYtFgetqqueXRpcRQ-54" target="WLUQYtFgetqqueXRpcRQ-62">
          <mxGeometry relative="1" as="geometry" />
        </mxCell>
        <mxCell id="WLUQYtFgetqqueXRpcRQ-64" style="edgeStyle=orthogonalEdgeStyle;rounded=0;orthogonalLoop=1;jettySize=auto;html=1;entryX=0.595;entryY=-0.1;entryDx=0;entryDy=0;entryPerimeter=0;" edge="1" parent="WIyWlLk6GJQsqaUBKTNV-1" source="WLUQYtFgetqqueXRpcRQ-55" target="WLUQYtFgetqqueXRpcRQ-62">
          <mxGeometry relative="1" as="geometry" />
        </mxCell>
      </root>
    </mxGraphModel>
  </diagram>
</mxfile>
